<svg width="700" height="700" viewBox="0 0 700 700" fill="none" xmlns="http://www.w3.org/2000/svg">
<path d="M393.49 314.917C393.652 314.998 393.652 314.998 393.49 314.917V314.917Z" fill="#F8C64F"/>
<path d="M383.199 285.34C385.63 283.152 389.276 282.341 392.436 283.314C393.652 283.719 394.705 284.448 395.84 285.178C396.731 285.745 397.785 285.988 398.595 286.636C399 286.96 398.676 287.528 398.676 287.933C399.73 290.445 400.297 293.2 399.405 295.874C398.676 296.766 397.38 297.009 396.326 297.414C396.164 298.548 396.569 299.602 396.731 300.736C396.488 300.898 396.326 301.06 396.083 301.222C397.623 301.141 399.162 300.817 400.702 300.493C401.269 299.926 402.161 300.25 402.89 300.169C402.971 299.035 403.376 297.981 403.376 296.847C403.538 296.847 403.862 296.766 404.024 296.685C404.106 297.495 404.024 298.305 404.268 299.116C404.673 299.44 405.321 299.278 405.807 299.359C405.807 299.683 405.807 300.007 405.888 300.331C415.288 300.25 424.769 300.331 434.169 300.331C434.169 300.817 434.169 301.304 434.169 301.709C434.413 301.709 434.737 301.709 435.061 301.709C435.061 299.926 435.061 298.224 435.061 296.441C435.304 296.441 435.871 296.441 436.114 296.441C436.114 297.9 436.033 299.278 436.114 300.736C436.195 300.817 436.357 300.898 436.519 300.898C436.519 301.06 436.6 301.385 436.6 301.547C436.925 301.222 437.33 300.979 437.816 301.141C437.897 301.385 437.978 301.628 438.059 301.952C437.735 302.276 437.573 302.681 437.735 303.167C440.328 303.248 442.921 303.167 445.595 303.167C445.838 302.843 446.244 302.681 446.649 302.519C446.811 302.6 447.054 302.762 447.135 302.843C448.432 302.843 449.647 302.843 450.944 302.843C451.106 303.491 451.106 304.14 451.025 304.707C449.728 304.707 448.432 304.707 447.135 304.707C447.054 304.788 446.811 305.031 446.649 305.112C446.244 304.869 445.919 304.707 445.514 304.464C443.164 304.464 440.814 304.464 438.464 304.464C437.087 304.869 435.628 304.788 434.25 304.545C434.25 305.031 434.25 305.598 434.25 306.085C430.361 306.085 426.552 306.085 422.662 306.085C422.176 306.49 421.69 306.733 421.042 306.814C421.285 308.029 419.907 308.354 419.421 309.245C419.097 309.731 418.611 310.055 418.125 310.217C417.719 312.729 418.611 315.079 419.259 317.429C418.53 317.592 417.719 317.835 416.99 317.997C416.585 319.617 416.18 321.319 415.856 322.94C415.531 324.398 414.397 325.614 413.019 326.181C412.047 327.316 410.75 328.45 409.211 328.531C408.643 328.693 408.238 328.288 407.833 327.964C405.807 328.126 403.943 327.154 402.161 326.343C400.216 325.452 398.433 324.317 396.569 323.264C396.731 324.398 396.164 325.371 395.759 326.343C396.65 326.748 397.866 327.073 398.352 328.045C398.676 328.774 399 329.585 399 330.476C398.919 333.393 398.595 336.311 398.433 339.228C398.514 341.335 397.461 343.442 396.002 344.981C395.03 344.9 394.219 344.495 393.328 344.09C393.004 344.819 392.274 345.549 392.68 346.44C393.004 347.493 393.004 348.628 393.49 349.6C396.245 352.518 398.595 355.759 400.297 359.405C401.999 362.89 403.295 366.537 404.673 370.183C404.916 370.183 405.402 370.102 405.645 370.102C405.969 371.156 405.645 372.371 406.293 373.343C406.861 374.235 406.699 375.288 406.699 376.342C406.537 378.773 406.374 381.204 406.131 383.635C405.969 385.337 405.564 387.038 405.321 388.74C405.402 390.037 405.969 391.333 405.888 392.63C405.807 393.845 405.807 395.142 404.835 396.033C404.916 398.788 404.187 401.544 405.159 404.218C406.456 406.001 407.914 407.702 409.454 409.242C411.156 410.052 413.181 410.214 414.64 411.673C415.207 412.564 414.883 413.618 414.721 414.59C411.237 415.076 407.752 415.076 404.268 414.59C402.89 414.266 401.593 413.699 400.216 413.537C398.352 413.618 396.164 414.347 394.462 413.051C394.3 410.863 395.111 408.756 395.516 406.649C395.678 405.919 396.407 405.433 396.326 404.704C396.164 402.192 396.002 399.599 395.84 397.087C395.516 396.925 394.949 396.763 395.03 396.276C395.03 395.061 394.624 393.845 394.3 392.711C393.733 389.631 393.49 386.471 393.409 383.311C393.328 382.419 393.895 381.771 394.543 381.204C394.705 379.826 394.868 378.368 394.949 376.99C394.705 376.261 394.138 375.693 393.814 375.045C392.355 375.207 390.249 375.531 389.357 373.992C387.25 370.831 385.062 367.59 382.955 364.43C382.064 364.349 381.011 364.43 380.2 363.862C379.309 362.89 378.742 361.593 378.174 360.378C377.931 361.35 377.769 362.404 377.202 363.214C376.716 364.024 375.905 364.592 375.338 365.321C374.771 366.618 374.285 367.914 373.798 369.211C373.231 370.831 372.421 372.452 372.259 374.235C372.178 375.126 372.016 375.937 371.692 376.747C371.286 377.395 370.557 377.638 369.909 377.962C369.423 379.016 369.098 380.069 368.369 380.961C367.883 381.528 367.073 381.69 366.748 382.419C366.424 383.392 365.938 384.283 365.533 385.175C365.371 386.147 366.019 387.2 365.695 388.173C365.128 390.604 363.912 392.873 362.778 395.061C362.21 396.682 361.805 398.383 360.995 399.923C360.671 400.571 359.86 400.733 359.212 400.814C358.483 402.597 357.673 404.299 357.186 406.163C356.943 407.945 356.943 409.809 357.024 411.592C357.024 412.402 357.51 413.051 357.835 413.78C358.159 414.752 357.916 415.725 357.754 416.697C354.593 417.102 351.352 417.426 348.273 416.454C347.948 416.211 348.029 415.806 347.948 415.482C347.705 414.023 347.543 412.483 348.029 411.106C349.083 407.297 349.974 403.488 351.028 399.68C350.623 399.275 350.055 398.95 350.055 398.302C349.974 397.249 350.055 396.114 350.298 395.061C350.785 393.278 352.081 391.9 352.729 390.199C352.973 389.469 352.892 388.74 352.973 388.011C352.973 386.309 353.945 384.931 354.674 383.473C355.404 382.257 355.971 380.961 356.943 379.907C357.592 379.34 357.592 378.449 358.078 377.719C358.564 376.828 359.374 376.099 359.374 375.045C359.536 373.749 359.05 372.452 359.212 371.156C359.536 367.347 360.266 363.619 360.914 359.811C360.59 359.405 360.104 359 359.942 358.433C360.023 358.028 360.104 357.704 360.185 357.299C359.942 356.893 359.698 356.488 359.455 356.083C359.779 355.597 360.104 355.03 360.428 354.543C360.104 354.3 359.698 353.976 359.374 353.733C359.779 352.518 359.617 350.735 361.076 350.168C361.238 350.249 361.643 350.33 361.805 350.411C361.562 348.304 361.562 346.116 361.319 344.009C360.752 341.74 360.671 339.39 360.914 337.121C361.724 335.905 363.264 335.419 364.642 335.338C362.859 334.933 361.076 334.771 359.374 334.204C359.293 332.745 359.536 331.286 359.779 329.828C360.509 326.992 360.185 324.074 360.59 321.157C360.995 320.347 362.048 320.185 362.94 320.347C363.993 320.509 365.047 320.185 366.1 319.86C366.1 319.455 366.181 318.969 366.1 318.564C365.452 315.728 365.614 312.81 366.1 310.055C366.748 306.49 368.207 303.005 370.881 300.493C372.664 298.791 375.257 297.981 377.688 298.062C378.499 298.062 378.985 298.872 379.633 299.359C379.957 299.035 380.281 298.71 380.524 298.386C380.119 297.009 379.471 295.55 379.552 294.091C379.714 290.85 380.767 287.528 383.199 285.34M408.481 308.273C408.643 308.435 408.643 308.435 408.481 308.273ZM409.616 308.435C409.697 309.002 409.859 309.569 409.535 310.055C409.13 310.217 408.643 310.217 408.238 310.46C409.373 310.46 410.507 310.541 411.642 310.46C412.533 310.217 412.209 309.083 412.209 308.435C411.642 307.786 410.426 308.191 409.616 308.435M406.78 311.838C407.59 312.729 407.995 314.107 408.724 314.998C409.778 313.621 410.588 312.162 411.804 310.947C410.345 310.866 408.887 311.028 407.428 310.866C407.185 311.19 407.023 311.514 406.78 311.838Z" fill="#F8C64F"/>
<path d="M636.432 354.3C638.134 353.571 640.322 354.543 640.808 356.326C641.295 357.947 640.403 359.811 638.782 360.297C637.243 360.864 635.298 360.135 634.731 358.514C634.082 357.055 634.812 354.949 636.432 354.3ZM635.946 355.273C634.65 356.407 634.812 358.676 636.27 359.568C637.162 360.216 638.377 360.054 639.35 359.649C638.782 359 638.296 358.271 637.891 357.542C637.729 357.542 637.324 357.542 637.162 357.461C637.081 358.109 637.405 358.919 636.757 359.324C636.513 358.028 636.676 356.731 636.594 355.435C637.405 355.435 638.458 355.111 639.107 355.759C639.593 356.407 639.107 357.299 638.377 357.542C638.701 357.947 638.944 358.433 639.269 358.838L639.431 358.433C639.431 358.676 639.35 359.162 639.269 359.487C640.646 358.676 640.808 356.569 639.755 355.435C638.782 354.381 636.919 354.3 635.946 355.273ZM637.081 355.84C637.081 356.245 637.081 356.731 637.081 357.137C637.648 357.055 638.782 357.299 638.782 356.407C638.62 355.678 637.567 355.921 637.081 355.84V355.84Z" fill="#F8C64F"/>
<path d="M59.0592 362.08C59.1402 358.028 62.7868 354.543 66.7575 354.462C73.6455 354.462 80.6145 354.462 87.5835 354.462C91.5542 354.462 95.1197 357.947 95.3628 361.918C86.2059 361.918 77.13 361.918 67.973 361.918C67.973 367.995 67.973 374.154 67.973 380.231C77.13 380.231 86.2059 380.231 95.3628 380.231C95.2007 382.825 93.7421 385.337 91.4731 386.633C90.0955 387.444 88.5559 387.768 87.0162 387.768C80.2093 387.768 73.4024 387.768 66.6765 387.768C62.7058 387.687 59.1402 384.121 59.1402 380.15C59.0592 374.154 59.0592 368.157 59.0592 362.08Z" fill="#F8C64F"/>
<path d="M105.573 354.787C106.465 354.543 107.437 354.462 108.409 354.462C115.459 354.462 122.428 354.462 129.478 354.462C133.449 354.624 136.853 358.028 137.015 361.999C137.015 367.995 137.015 374.073 137.015 380.069C136.934 384.121 133.287 387.768 129.235 387.768C121.942 387.768 114.649 387.768 107.356 387.768C103.385 387.687 99.8197 384.121 99.8197 380.15C99.8197 374.235 99.8197 368.319 99.8197 362.323C99.6577 358.919 102.17 355.678 105.573 354.787M107.842 361.755C107.842 368.076 107.842 374.397 107.842 380.718C114.811 380.718 121.861 380.718 128.83 380.718C128.83 374.397 128.83 368.076 128.83 361.755C121.78 361.755 114.811 361.755 107.842 361.755V361.755Z" fill="#F8C64F"/>
<path d="M143.092 378.935C143.092 370.75 143.092 362.566 143.092 354.462C145.523 354.543 148.035 355.597 149.494 357.623C150.548 359 151.115 360.702 151.196 362.404C151.196 368.481 151.196 374.64 151.196 380.718C158.165 380.637 165.134 380.718 172.184 380.718C172.184 371.966 172.184 363.295 172.184 354.543C174.858 354.543 177.613 354.543 180.287 354.543C180.287 363.133 180.287 371.642 180.287 380.231C180.206 384.283 176.722 387.768 172.67 387.93C165.458 388.011 158.246 387.93 151.034 387.93C147.873 387.93 144.794 385.904 143.579 382.906C143.173 381.609 143.092 380.312 143.092 378.935V378.935Z" fill="#F8C64F"/>
<path d="M187.175 354.462C191.551 354.138 196.17 355.354 199.574 358.271C206.056 364.43 212.62 370.507 219.103 376.585C219.103 371.966 219.103 367.266 219.103 362.647C219.022 359.73 220.643 356.893 223.236 355.435C224.451 354.705 225.829 354.462 227.206 354.381C227.288 365.483 227.206 376.666 227.206 387.768C224.613 387.768 222.02 387.768 219.346 387.768C211.324 380.15 203.301 372.533 195.279 364.916C195.279 372.533 195.279 380.15 195.279 387.768C192.605 387.768 189.849 387.768 187.175 387.768C187.175 376.747 187.175 365.645 187.175 354.462V354.462Z" fill="#F8C64F"/>
<path d="M229.719 361.755C229.719 358.028 232.798 354.381 236.688 354.543C246.979 354.543 257.27 354.543 267.562 354.543C267.562 356.407 266.751 358.271 265.536 359.649C264.158 361.107 262.132 361.755 260.188 361.755C257.676 361.755 255.082 361.755 252.57 361.755C252.57 370.426 252.57 379.178 252.57 387.849C249.815 387.849 247.141 387.849 244.386 387.849C244.386 379.178 244.386 370.426 244.386 361.755C239.524 361.755 234.662 361.755 229.719 361.755V361.755Z" fill="#F8C64F"/>
<path d="M270.398 354.543C281.176 354.543 291.953 354.543 302.812 354.543C302.731 356.893 301.596 359.324 299.652 360.621C298.436 361.431 296.896 361.837 295.438 361.837C289.846 361.837 284.174 361.837 278.583 361.837C278.583 363.781 278.583 365.645 278.583 367.59C285.389 367.59 292.196 367.59 299.084 367.59C299.084 370.426 297.383 373.262 294.708 374.397C293.736 374.802 292.602 374.964 291.548 374.964C287.253 374.964 282.958 374.964 278.664 374.964C278.664 376.909 278.664 378.854 278.664 380.718C286.767 380.718 294.871 380.718 303.055 380.718C303.055 384.364 300.138 387.849 296.41 387.93C287.739 387.93 279.15 387.93 270.479 387.93C270.479 376.747 270.398 365.645 270.398 354.543V354.543Z" fill="#F8C64F"/>
<path d="M307.836 354.543C315.94 354.543 324.043 354.543 332.228 354.543C335.064 354.624 338.224 354.949 340.412 356.974C342.519 359.081 342.762 362.323 342.762 365.159C342.681 367.59 342.762 370.102 341.79 372.29C340.493 374.478 338.224 376.018 335.712 376.666C339.278 380.718 342.762 384.85 346.328 388.902C343.41 388.902 340.493 388.902 337.657 388.902C336.766 388.902 335.874 388.902 335.145 388.497C334.253 388.011 333.686 387.119 333.038 386.39C328.662 381.042 324.367 375.612 319.991 370.264C323.638 370.264 327.366 370.264 331.012 370.264C332.066 370.183 333.2 370.183 334.01 369.373C334.659 368.319 334.497 367.023 334.578 365.807C334.497 364.754 334.659 363.538 333.929 362.647C333.119 361.999 331.985 361.918 331.012 361.918C325.988 361.918 321.045 361.918 316.021 361.918C316.021 370.588 316.021 379.34 316.021 388.011C313.265 388.092 310.591 388.011 307.836 388.011C307.755 376.747 307.836 365.645 307.836 354.543V354.543Z" fill="#F8C64F"/>
<path d="M420.15 359.324C421.366 356.488 424.283 354.543 427.363 354.543C434.007 354.543 440.652 354.543 447.216 354.543C448.837 354.462 450.538 354.705 451.997 355.516C454.266 356.731 455.725 359.162 456.13 361.674C446.649 361.755 437.087 361.674 427.606 361.674C427.606 363.619 427.606 365.483 427.606 367.428C434.088 367.428 440.49 367.428 446.973 367.428C448.432 367.428 449.971 367.347 451.43 367.833C454.671 368.887 456.94 372.209 456.778 375.612C456.697 378.043 457.102 380.637 456.13 382.987C454.914 385.823 451.916 387.849 448.837 387.768C441.625 387.768 434.413 387.768 427.119 387.768C423.23 387.687 419.745 384.364 419.502 380.556C429.226 380.556 438.869 380.556 448.594 380.556C448.594 378.611 448.594 376.585 448.594 374.64C441.544 374.64 434.413 374.64 427.363 374.64C423.068 374.721 419.178 370.831 419.421 366.537C419.583 364.187 419.097 361.593 420.15 359.324V359.324Z" fill="#F8C64F"/>
<path d="M462.775 355.03C464.152 354.381 465.692 354.543 467.07 354.543C476.146 354.543 485.221 354.543 494.216 354.543C494.216 357.38 492.515 360.297 489.678 361.269C487.896 361.918 486.032 361.755 484.168 361.755C482.79 361.755 481.494 361.755 480.116 361.755C480.116 370.426 480.116 379.178 480.116 387.849C477.442 387.849 474.687 387.849 472.013 387.849C472.013 379.178 472.013 370.426 472.013 361.755C467.475 361.837 462.856 361.755 458.318 361.755C458.48 358.919 460.101 356.083 462.775 355.03V355.03Z" fill="#F8C64F"/>
<path d="M497.458 354.543C505.561 354.543 513.584 354.543 521.687 354.543C524.442 354.624 527.522 354.868 529.791 356.731C532.06 358.757 532.384 361.999 532.384 364.835C532.303 367.266 532.384 369.859 531.492 372.209C530.196 374.478 527.927 376.018 525.415 376.666C527.765 379.259 530.115 381.933 532.465 384.526C533.437 385.661 534.491 386.633 535.382 387.93C532.384 387.93 529.304 387.93 526.306 387.93C525.091 387.93 523.794 387.444 523.065 386.471C518.608 381.042 514.151 375.693 509.694 370.264C513.422 370.264 517.149 370.264 520.877 370.264C522.011 370.183 523.551 370.102 523.875 368.806C524.28 367.023 524.28 365.159 523.956 363.376C523.713 362.08 522.173 361.918 521.12 361.837C515.934 361.837 510.828 361.837 505.642 361.837C505.642 370.507 505.642 379.259 505.642 387.93C502.887 387.93 500.213 387.93 497.458 387.93C497.458 376.747 497.458 365.645 497.458 354.543Z" fill="#F8C64F"/>
<path d="M541.46 354.543C544.134 354.543 546.889 354.543 549.563 354.543C549.644 365.645 549.563 376.828 549.563 387.93C546.889 387.93 544.134 387.93 541.46 387.93C541.46 376.747 541.46 365.645 541.46 354.543Z" fill="#F8C64F"/>
<path d="M558.72 354.543C561.394 354.543 564.149 354.543 566.823 354.543C566.823 358.757 566.823 362.971 566.823 367.266C567.31 367.185 567.877 367.347 568.282 366.942C573.549 362.809 578.736 358.676 584.003 354.543C587.974 354.543 591.863 354.543 595.834 354.543C589.675 359.973 583.436 365.321 577.196 370.75C584.489 376.504 591.863 382.176 599.075 387.93C595.105 387.93 591.215 387.93 587.244 387.93C586.191 387.93 585.218 387.606 584.408 386.957C578.898 382.825 573.387 378.611 567.958 374.478C567.553 374.478 567.148 374.478 566.742 374.478C566.742 378.935 566.742 383.473 566.742 387.93C564.068 387.849 561.313 387.93 558.639 387.93C558.72 376.747 558.72 365.645 558.72 354.543Z" fill="#F8C64F"/>
<path d="M599.886 354.543C610.663 354.543 621.522 354.543 632.3 354.543C632.219 356.569 631.408 358.514 629.95 359.892C628.491 361.188 626.546 361.837 624.601 361.755C619.091 361.755 613.581 361.755 607.989 361.755C607.989 363.7 607.989 365.564 607.989 367.509C614.796 367.509 621.684 367.509 628.491 367.509C628.41 370.426 626.708 373.343 623.872 374.316C622.17 375.045 620.306 374.802 618.524 374.802C615.039 374.802 611.474 374.802 607.989 374.802C607.908 376.747 607.908 378.692 607.989 380.556C616.093 380.556 624.196 380.556 632.3 380.556C632.381 383.554 630.355 386.552 627.438 387.444C625.898 387.93 624.277 387.768 622.737 387.768C615.039 387.768 607.422 387.768 599.724 387.768C599.967 376.747 599.886 365.645 599.886 354.543V354.543Z" fill="#F8C64F"/>
<path d="M425.661 400.49C426.471 399.518 427.93 399.518 429.145 399.437C430.685 399.437 432.306 399.356 433.764 399.923C434.899 400.49 434.899 401.949 434.98 403.083C434.25 403.083 433.44 403.083 432.711 403.083C432.549 402.435 432.549 401.544 431.738 401.463C430.523 401.301 429.226 401.219 428.011 401.544C427.038 401.868 427.119 403.083 427.038 403.975C427.119 405.433 426.876 406.973 427.281 408.432C427.525 409.242 428.497 409.323 429.226 409.404C430.199 409.404 431.333 409.566 432.225 409.08C432.873 408.513 432.711 407.459 432.792 406.649C431.819 406.649 430.766 406.649 429.794 406.649C429.794 406.082 429.794 405.514 429.794 404.947C431.495 404.947 433.278 404.947 434.98 404.947C434.899 406.811 435.385 408.918 434.169 410.457C432.792 411.43 431.009 411.268 429.469 411.349C428.011 411.268 426.147 411.268 425.337 409.89C424.526 408.27 424.688 406.325 424.769 404.542C424.85 403.164 424.688 401.625 425.661 400.49V400.49Z" fill="#F8C64F"/>
<path d="M440.085 399.518C440.814 399.518 441.625 399.518 442.354 399.518C442.354 402.759 442.354 406.001 442.354 409.242C444.218 409.323 446.082 409.242 447.864 409.242C447.864 409.89 447.864 410.62 447.864 411.268C445.271 411.268 442.678 411.268 440.085 411.268C440.085 407.378 440.085 403.407 440.085 399.518Z" fill="#F8C64F"/>
<path d="M454.347 399.68C456.454 399.275 458.642 399.194 460.668 399.842C462.208 400.409 462.289 402.273 462.451 403.732C462.451 405.838 462.694 408.107 461.802 410.052C460.911 411.268 459.209 411.268 457.832 411.349C456.211 411.349 454.266 411.511 452.97 410.376C452.078 409.242 452.078 407.702 451.997 406.406C451.997 404.623 451.916 402.84 452.564 401.138C452.726 400.328 453.537 399.842 454.347 399.68ZM455.563 401.463C455.157 401.544 454.59 401.706 454.509 402.192C454.185 403.894 454.266 405.595 454.266 407.297C454.347 408.026 454.347 409.161 455.32 409.242C456.697 409.404 458.399 409.728 459.695 408.918C460.344 407.297 460.101 405.433 460.101 403.65C460.02 402.921 460.182 401.787 459.29 401.544C458.075 401.219 456.778 401.3 455.563 401.463V401.463Z" fill="#F8C64F"/>
<path d="M467.475 399.518C469.663 399.518 471.851 399.518 474.039 399.518C475.011 399.599 476.227 399.842 476.551 400.895C477.037 402.354 476.956 404.623 475.173 405.19C477.361 405.676 477.442 408.513 476.632 410.133C476.064 411.106 474.768 411.268 473.714 411.268C471.608 411.268 469.501 411.268 467.475 411.268C467.475 407.378 467.475 403.407 467.475 399.518M469.744 401.382C469.744 402.354 469.744 403.407 469.744 404.38C470.959 404.38 472.175 404.461 473.39 404.299C474.93 404.299 474.849 401.463 473.39 401.382C472.175 401.301 470.959 401.382 469.744 401.382ZM469.744 409.404C471.121 409.404 472.418 409.485 473.795 409.323C475.092 409.161 474.93 407.378 474.525 406.487C473.066 405.757 471.364 406.325 469.744 406.082C469.744 407.216 469.744 408.27 469.744 409.404Z" fill="#F8C64F"/>
<path d="M485.059 399.518C486.194 399.437 487.328 399.518 488.463 399.518C489.759 403.407 491.137 407.378 492.433 411.268C491.623 411.268 490.894 411.268 490.083 411.268C489.84 410.538 489.597 409.728 489.354 408.999C487.652 408.999 485.951 408.999 484.33 408.999C484.087 409.728 483.844 410.538 483.601 411.268C482.79 411.268 481.98 411.268 481.17 411.268C482.466 407.378 483.844 403.488 485.059 399.518ZM484.816 407.378C486.113 407.378 487.49 407.378 488.787 407.378C488.139 405.433 487.49 403.407 486.842 401.463C486.032 403.326 485.546 405.352 484.816 407.378Z" fill="#F8C64F"/>
<path d="M496.971 399.518C497.701 399.518 498.511 399.518 499.24 399.518C499.24 402.759 499.24 406.001 499.24 409.242C501.104 409.242 502.887 409.242 504.751 409.242C504.751 409.89 504.751 410.62 504.751 411.268C502.158 411.268 499.565 411.268 496.971 411.268C496.971 407.378 496.971 403.407 496.971 399.518V399.518Z" fill="#F8C64F"/>
<path d="M519.418 399.599C521.444 399.275 523.632 399.113 525.577 399.842C526.954 400.328 527.197 402.03 527.278 403.326C527.359 405.433 527.522 407.621 526.792 409.647C526.387 410.863 524.847 411.106 523.713 411.268C521.93 411.349 520.066 411.511 518.365 410.782C517.149 410.214 516.906 408.675 516.825 407.54C516.663 405.433 516.663 403.245 517.23 401.138C517.554 400.247 518.527 399.761 519.418 399.599M520.309 401.463C519.661 401.544 519.256 402.111 519.256 402.759C519.094 404.623 519.013 406.649 519.337 408.513C519.58 409.485 520.877 409.404 521.687 409.485C522.66 409.404 523.956 409.647 524.685 408.837C525.253 407.216 525.009 405.433 525.009 403.732C524.928 403.002 525.01 401.787 524.118 401.625C522.822 401.219 521.525 401.301 520.309 401.463V401.463Z" fill="#F8C64F"/>
<path d="M532.303 399.518C534.896 399.518 537.489 399.518 540.082 399.518C540.082 400.166 540.082 400.814 540.082 401.382C538.218 401.382 536.354 401.382 534.491 401.382C534.491 402.435 534.491 403.488 534.491 404.542C536.273 404.542 538.056 404.542 539.758 404.542C539.758 405.19 539.758 405.838 539.758 406.487C537.975 406.487 536.192 406.487 534.491 406.487C534.491 408.107 534.491 409.728 534.491 411.268C533.761 411.268 533.032 411.268 532.222 411.268C532.303 407.378 532.384 403.407 532.303 399.518V399.518Z" fill="#F8C64F"/>
<path d="M545.025 399.518C547.618 399.518 550.211 399.518 552.885 399.518C552.885 400.166 552.885 400.814 552.885 401.382C551.022 401.382 549.158 401.382 547.294 401.382C547.294 402.435 547.294 403.488 547.294 404.542C549.077 404.542 550.779 404.542 552.561 404.542C552.561 405.19 552.561 405.838 552.561 406.487C550.779 406.487 549.077 406.487 547.294 406.487C547.294 408.107 547.294 409.728 547.294 411.349C546.565 411.349 545.754 411.349 545.025 411.349C545.025 407.378 545.025 403.407 545.025 399.518V399.518Z" fill="#F8C64F"/>
<path d="M557.504 399.518C560.179 399.518 562.853 399.518 565.527 399.518C565.527 400.166 565.527 400.814 565.527 401.463C563.582 401.463 561.637 401.463 559.692 401.463C559.692 402.435 559.692 403.488 559.692 404.461C561.556 404.461 563.339 404.461 565.203 404.461C565.203 405.028 565.203 405.595 565.203 406.163C563.339 406.163 561.475 406.163 559.692 406.163C559.692 407.216 559.692 408.351 559.692 409.404C561.637 409.485 563.582 409.404 565.608 409.404C565.608 410.052 565.608 410.701 565.608 411.268C562.934 411.268 560.179 411.268 557.504 411.268C557.504 407.378 557.504 403.407 557.504 399.518V399.518Z" fill="#F8C64F"/>
<path d="M570.794 399.518C572.091 399.518 573.306 399.518 574.603 399.518C576.305 402.678 577.844 405.919 579.465 409.161C579.465 405.919 579.465 402.759 579.465 399.518C580.194 399.518 581.005 399.518 581.734 399.518C581.734 403.407 581.734 407.378 581.734 411.268C580.437 411.268 579.222 411.268 577.925 411.268C576.224 408.026 574.441 404.785 572.982 401.382C573.063 404.704 572.982 407.945 573.063 411.268C572.334 411.268 571.524 411.268 570.794 411.268C570.794 407.378 570.794 403.407 570.794 399.518Z" fill="#F8C64F"/>
<path d="M587.244 400.814C587.811 399.68 589.27 399.518 590.324 399.437C591.863 399.437 593.484 399.275 594.943 399.923C595.996 400.49 595.996 401.868 596.077 402.921C595.348 403.002 594.618 403.002 593.808 402.921C593.646 402.354 593.727 401.382 592.917 401.301C591.863 401.138 590.729 401.138 589.756 401.382C588.946 401.706 589.027 402.759 589.108 403.407C589.189 404.299 590.243 404.137 590.81 404.299C592.349 404.461 594.132 404.299 595.51 405.19C596.482 406.406 596.239 408.107 595.996 409.566C595.753 410.782 594.537 411.187 593.484 411.268C591.701 411.43 589.756 411.511 588.055 410.944C586.758 410.376 586.758 408.756 586.677 407.54C587.406 407.54 588.136 407.54 588.865 407.54C588.946 408.188 588.784 409.161 589.594 409.404C590.891 409.647 592.187 409.728 593.484 409.323C594.213 408.756 594.132 407.54 593.808 406.73C592.755 406.082 591.377 406.406 590.161 406.163C589.027 406.001 587.487 406.001 587.001 404.704C586.758 403.488 586.758 402.03 587.244 400.814V400.814Z" fill="#F8C64F"/>
<path d="M601.425 399.518C602.155 399.518 602.965 399.518 603.694 399.518C603.694 403.407 603.694 407.378 603.694 411.268C602.965 411.268 602.155 411.268 601.425 411.268C601.425 407.378 601.425 403.407 601.425 399.518Z" fill="#F8C64F"/>
<path d="M608.151 399.518C608.962 399.518 609.691 399.518 610.501 399.518C611.555 402.84 612.77 406.082 613.662 409.404C614.553 406.082 615.769 402.759 616.822 399.518C617.632 399.518 618.443 399.518 619.253 399.518C617.956 403.407 616.741 407.378 615.444 411.268C614.31 411.268 613.094 411.268 611.96 411.268C610.663 407.378 609.448 403.407 608.151 399.518V399.518Z" fill="#F8C64F"/>
<path d="M623.467 399.518C626.141 399.518 628.815 399.518 631.57 399.518C631.57 400.166 631.57 400.814 631.57 401.382C629.626 401.382 627.681 401.382 625.736 401.382C625.736 402.354 625.736 403.407 625.736 404.38C627.6 404.38 629.382 404.38 631.246 404.38C631.246 404.947 631.246 405.514 631.246 406.082C629.382 406.082 627.519 406.082 625.736 406.082C625.736 407.135 625.736 408.27 625.736 409.323C627.681 409.404 629.625 409.323 631.651 409.323C631.651 409.971 631.651 410.62 631.651 411.187C628.977 411.187 626.222 411.187 623.548 411.187C623.467 407.378 623.467 403.407 623.467 399.518V399.518Z" fill="#F8C64F"/>
</svg>
