<svg width="128" height="128" viewBox="0 0 128 128" fill="none" xmlns="http://www.w3.org/2000/svg">
<path fill-rule="evenodd" clip-rule="evenodd" d="M68.369 128H7.065C3.162 128 0 124.836 0 120.935V7.065C0 3.162 3.162 0 7.065 0H120.936C124.837 0 128 3.162 128 7.065V120.935C128 124.837 124.837 128 120.936 128H88.318V78.431H104.956L107.447 59.113H88.318V46.78C88.318 41.187 89.871 37.376 97.891 37.376L108.12 37.372V20.094C106.351 19.859 100.279 19.333 93.214 19.333C78.465 19.333 68.368 28.336 68.368 44.868V59.114H51.688V78.432H68.369V128Z" fill="#F8C64F"/>
</svg>
