<svg width="302" height="401" viewBox="0 0 302 401" fill="none" xmlns="http://www.w3.org/2000/svg">
<path d="M301 60.77C295.94 60.76 288.84 60.23 283.83 61.01C276.37 62.33 268.77 60.15 261.25 59.92C261.14 58.08 262.54 54.79 262.47 52.96C261.06 52.78 259.66 52.68 258.3 52.36C257.03 47.79 257.52 42.97 257.37 38.28C256.65 38.27 255.2 38.24 254.48 38.22C254.25 43.56 254.27 48.9 254.21 54.24C252.36 52.73 251.07 49.8 248.38 50.01L174.92 50C171.04 50.42 168.01 47.77 164.88 45.9C164.58 43.44 164.19 41 163.71 38.58C161.51 41.61 161.31 45.49 160.5 49.06C154.66 50.22 148.89 53.49 142.94 54.01C142.42 50.57 141.87 47.14 141.49 43.67C144.64 42.15 148.18 41.13 150.79 38.65C153.86 29.67 150.31 20.33 148.28 11.55C141.99 6.97 135.02 2.92 127.77 0H117.35C110.19 2.34 103.06 6.17 98.99 12.91C92.69 22.8 91.82 35.5 95.78 46.48C95.22 46.86 94.1 47.64 93.54 48.04C86.72 42.64 77.29 45.31 70.76 49.84C61.28 57.03 56.22 68.79 54.12 80.39C51.95 90.22 52.92 100.31 54.08 110.19C50.16 111.16 46.14 111.35 42.15 111.65C40.48 111.72 38.37 112.39 38.19 114.38C36.99 122.2 37.88 130.24 36.27 138.01C35.23 142.99 34.56 148.05 34.73 153.15C39.1 154.14 43.5 155.09 47.89 156.02C44.89 157.4 41.44 158.38 39.3 161.11C37.42 173.72 41.9 186.15 41.5 198.8C39.3 200.72 36.55 202.45 35.83 205.53C34.48 209.16 36.63 212.85 36.1 216.56C35.59 220.6 36.5 224.62 37.79 228.4C39 231.57 37.99 234.97 37.51 238.2C36.09 246.56 34.46 254.94 34.11 263.43C33.83 267.91 35.38 272.53 33.95 276.88C29.29 287.56 21.46 296.47 17.32 307.42C15.49 312.46 16.42 318.22 13.79 323C10.98 328.38 7.1 333.69 7.45 340.14C7.14 344.51 10.62 348.43 9.15 352.8C6.97 361.71 4.78 370.63 2.36 379.49C0.719997 385.38 0.409996 391.83 2.24 397.71C4.69 399 7.45 399.43 10.13 400.01H20.44C23.77 399.7 27.07 399.14 30.4 398.67C31.36 394.05 30.23 389.54 28.67 385.24C26.73 374.4 28.46 362.88 33.87 353.32C35.74 350.84 39.14 349.88 40.47 346.92C42.46 342.69 43.41 338.06 45.23 333.76C47.79 327.64 51.29 321.89 52.89 315.38C53.78 311.82 52.76 308.17 53.08 304.57C54.05 300.58 55.84 296.67 58.78 293.79C62.72 290.1 64.26 284.45 68.57 281.1C71.51 278.9 71.65 274.96 72.27 271.59C72.85 267.13 74.3 262.86 75.91 258.69C78.2 252.92 79.78 246.59 84.19 242.04C86.99 239.11 88.39 235.21 89.41 231.33C91.16 234.72 92.56 238.48 95.37 241.14C98.52 242.72 103.11 241.87 105.02 245.48C110.51 253.84 110.92 258.6 116.43 266.96C119.06 272.15 125.4 270.88 130.09 271.02C132.79 274.73 135.8 275.8 134.9 280.3C134.73 285.37 130.45 289.28 131.05 294.47C131.52 305.03 132.3 315.68 135.04 325.91C136 330.68 138.48 335.06 138.56 340.02C138.68 345.76 137.59 355.16 136.44 360.83C133.64 368.42 131.73 376.36 131.37 384.49C137.99 388.39 145.63 384.43 152.55 386.74C160.14 389.25 168.1 390.15 176.05 390C180.94 389.91 185.84 389.43 190.65 388.68C190.68 385.91 191.58 382.9 190.32 380.31C186.32 375.58 179.63 375.56 174.77 372.29C170.84 368.75 167.63 364.43 164.35 360.28C161.58 357.02 165.29 352.51 165.18 348.4C165.22 342.16 165.19 335.73 167.49 329.85C169.19 325.17 168.62 320.11 167.7 315.34C166.46 309.47 168.56 303.68 169.1 297.87C169.88 289.95 170.44 282.01 170.94 274.07C171.3 269.54 169.75 265.22 168.65 260.91C168 256.85 164.14 254.56 163.01 250.71C156.39 232.45 150.33 217.42 137.29 202.86C132.28 197.87 129.75 189.53 132.79 182.82C135.61 183.59 138.41 184.44 141.27 185.16C144.32 181.05 147.3 176.51 147.79 171.23C148.29 165.79 148.44 160.32 148.92 154.88C149.14 148.95 150.42 142.84 148.89 137.02C147.89 133.04 143.96 131.32 140.92 129.3C141.65 126.53 142.39 123.78 143.04 120.99C153.07 125.88 162.37 132.97 173.6 134.71C176.61 135.17 179.83 136.61 182.82 135.23C186.94 133.25 190.12 129.79 193.72 127.01C200.24 121.88 199.34 112.52 201.61 105.2C203.83 104.34 206.09 103.55 208.34 102.71C206.86 96.22 204.28 89.66 205.16 82.89C207.86 79.2 211.27 76.99 214.08 73.38C216.09 70.64 219.57 69.93 222.74 70.01C232.29 69.96 241.85 70.13 251.41 70.02C251.72 68.63 250.59 71.41 250.93 70.02C260.87 70.59 270.82 68.43 280.78 69.67C286.99 70.74 295.33 70.3 301.57 69.84C301.24 68 301.08 62.6 301 60.77ZM178.03 95.74C176.14 92.36 173.31 89.18 172.75 85.28C173.05 84.87 173.67 84.08 173.97 83.68C178.03 83.25 182.12 83.52 186.19 83.72C183.56 87.78 180.78 91.76 178.03 95.74ZM177.44 82.66C180.14 81.28 181.01 78.43 181.36 75.56C183.53 75.45 185.71 75.38 187.91 75.33C187.99 77.44 188.06 79.53 188.14 81.64C184.62 82.43 181.01 82.42 177.44 82.66Z" fill="#FEB321"/>
</svg>
