<svg width="304" height="401" viewBox="0 0 304 401" fill="none" xmlns="http://www.w3.org/2000/svg">
<path d="M1.02722 63.0256C6.087 62.9775 13.1828 62.3941 18.1985 63.1364C25.6682 64.4002 33.2516 62.1631 40.7697 61.8765C40.8658 60.0358 39.4411 56.7564 39.4974 54.9259C40.906 54.7353 42.3052 54.6248 43.6627 54.2946C44.8983 49.7151 44.372 44.899 44.4867 40.208C45.2067 40.1926 46.6564 40.1516 47.3762 40.1262C47.6464 45.4643 47.6666 50.8043 47.7668 56.1437C49.6054 54.6199 50.8733 51.6802 53.5648 51.87L127.023 51.3073C130.906 51.6981 133.916 49.0253 137.031 47.1318C137.313 44.6696 137.685 42.2268 138.146 39.8032C140.369 42.8166 140.598 46.695 141.435 50.2588C147.284 51.3748 153.078 54.6013 159.032 55.0765C159.526 51.6327 160.05 48.1987 160.404 44.7259C157.243 43.2296 153.695 42.2363 151.067 39.776C147.929 30.8194 151.409 21.4529 153.373 12.6579C159.628 8.0307 166.567 3.92837 173.795 0.953902L184.215 0.875499C191.392 3.16156 198.551 6.9378 202.671 13.647C209.046 23.4893 210.011 36.1824 206.134 47.1919C206.697 47.5677 207.823 48.3392 208.386 48.735C215.165 43.2838 224.615 45.8828 231.178 50.3635C240.712 57.482 245.861 69.2036 248.048 80.7875C250.292 90.6009 249.398 100.698 248.312 110.586C252.239 111.527 256.261 111.687 260.253 111.957C261.923 112.014 264.038 112.668 264.233 114.657C265.492 122.467 264.662 130.514 266.331 138.272C267.408 143.244 268.116 148.298 267.985 153.4C263.622 154.422 259.23 155.405 254.847 156.368C257.857 157.726 261.314 158.68 263.475 161.394C265.45 173.989 261.063 186.453 261.558 199.099C263.773 201.003 266.536 202.712 267.279 205.786C268.656 209.406 266.534 213.112 267.092 216.818C267.632 220.854 266.753 224.881 265.491 228.67C264.305 231.849 265.341 235.242 265.845 238.468C267.328 246.817 269.021 255.185 269.435 263.672C269.748 268.149 268.233 272.781 269.696 277.12C274.436 287.765 282.333 296.616 286.555 307.534C288.423 312.56 287.536 318.327 290.202 323.087C293.053 328.446 296.972 333.726 296.671 340.179C297.014 344.546 293.563 348.493 295.066 352.851C297.313 361.745 299.57 370.648 302.057 379.49C303.741 385.367 304.1 391.815 302.314 397.708C299.874 399.017 297.117 399.467 294.442 400.067L284.132 400.145C280.8 399.86 277.495 399.325 274.162 398.88C273.167 394.267 274.263 389.749 275.791 385.437C277.649 374.583 275.833 363.076 270.351 353.557C268.462 351.092 265.055 350.157 263.703 347.207C261.681 342.992 260.696 338.37 258.844 334.083C256.238 327.983 252.695 322.259 251.046 315.762C250.129 312.208 251.122 308.551 250.775 304.953C249.775 300.971 247.955 297.074 244.994 294.216C241.026 290.556 239.444 284.918 235.108 281.601C232.152 279.423 231.982 275.484 231.337 272.119C230.723 267.663 229.241 263.404 227.6 259.246C225.267 253.494 223.639 247.176 219.195 242.659C216.373 239.75 214.944 235.861 213.895 231.989C212.17 235.392 210.798 239.162 208.009 241.843C204.871 243.447 200.274 242.632 198.391 246.256C192.965 254.657 192.59 259.42 187.143 267.821C184.553 273.031 178.203 271.808 173.514 271.984C170.842 275.714 167.84 276.807 168.774 281.3C168.982 286.368 173.292 290.246 172.731 295.44C172.34 306.003 171.64 316.659 168.978 326.909C168.053 331.686 165.606 336.085 165.564 341.045C165.487 346.786 166.648 356.178 167.84 361.839C170.697 369.408 172.667 377.333 173.088 385.46C166.498 389.41 158.828 385.507 151.926 387.869C144.355 390.436 136.402 391.396 128.451 391.306C123.56 391.253 118.657 390.81 113.841 390.096C113.791 387.326 112.868 384.323 114.108 381.724C118.073 376.964 124.762 376.893 129.598 373.587C133.501 370.018 136.678 365.674 139.927 361.499C142.672 358.218 138.929 353.736 139.008 349.626C138.921 343.386 138.902 336.956 136.558 331.093C134.823 326.426 135.355 321.362 136.239 316.585C137.435 310.706 135.291 304.932 134.707 299.126C133.868 291.213 133.248 283.277 132.688 275.341C132.294 270.814 133.812 266.482 134.879 262.164C135.499 258.099 139.341 255.78 140.442 251.922C146.925 233.613 152.872 218.537 165.802 203.88C170.774 198.852 173.241 190.493 170.151 183.806C167.337 184.598 164.543 185.469 161.689 186.21C158.608 182.123 155.594 177.606 155.064 172.33C154.523 166.894 154.332 161.425 153.811 155.989C153.546 150.06 152.22 143.96 153.707 138.129C154.677 134.142 158.594 132.392 161.618 130.349C160.867 127.585 160.107 124.84 159.436 122.055C149.443 127.021 140.197 134.18 128.98 136.005C125.973 136.488 122.764 137.952 119.764 136.594C115.629 134.645 112.423 131.209 108.803 128.457C102.244 123.376 103.074 114.009 100.749 106.707C98.5223 105.863 96.2564 105.09 94.0001 104.267C95.4313 97.7663 97.9619 91.187 97.0309 84.4239C94.3032 80.7543 90.8767 78.57 88.0396 74.9812C86.0091 72.2565 82.5238 71.5727 79.3545 71.6765C69.8044 71.6984 60.246 71.9403 50.6854 71.9022C50.365 70.5146 51.5158 73.286 51.1654 71.8986C41.23 72.5434 31.264 70.4583 21.3136 71.7732C15.1118 72.8899 6.76877 72.5127 0.525485 72.0996C0.841631 70.2572 0.960987 64.8562 1.02722 63.0256ZM124.257 97.0694C126.121 93.6752 128.927 90.474 129.458 86.5699C129.155 86.1622 128.529 85.3769 128.226 84.9792C124.163 84.5797 120.075 84.8805 116.007 85.1111C118.667 89.1512 121.477 93.1102 124.257 97.0694ZM124.748 83.9853C122.038 82.6256 121.147 79.7823 120.775 76.915C118.604 76.8213 116.424 76.7677 114.224 76.7343C114.159 78.8448 114.105 80.9353 114.041 83.0458C117.567 83.8093 121.177 83.7722 124.748 83.9853Z" fill="#FEB321"/>
</svg>
