<svg width="121" height="123" viewBox="0 0 121 123" fill="none" xmlns="http://www.w3.org/2000/svg">
<path d="M60.34 31.24C44.1 31.24 30.8 44.73 30.8 61.202C30.8 77.674 44.1 91.164 60.34 91.164C76.58 91.164 89.74 77.674 89.74 61.202C89.74 44.73 76.44 31.24 60.34 31.24ZM60.34 84.064C47.88 84.064 37.8 73.84 37.8 61.202C37.8 48.564 47.88 38.34 60.34 38.34C72.66 38.34 82.74 48.564 82.74 61.202C82.74 73.84 72.66 84.064 60.34 84.064Z" fill="#F8C64F"/>
<path d="M93.24 14.342C90.16 14.342 87.36 15.478 85.26 17.608C83.16 19.738 82.04 22.578 82.04 25.702C82.04 28.826 83.16 31.666 85.26 33.796C87.36 35.926 90.16 37.062 93.24 37.062C96.32 37.062 99.12 35.926 101.22 33.796C103.18 31.808 104.44 28.968 104.58 25.844V25.702C104.58 22.72 103.32 19.88 101.36 17.892C99.26 15.62 96.32 14.342 93.24 14.342ZM96.18 28.684C94.64 30.246 91.7 30.246 90.16 28.684C89.32 27.832 88.9 26.838 88.9 25.702C88.9 24.566 89.32 23.43 90.16 22.72C91 21.868 91.98 21.442 93.1 21.442C94.22 21.442 95.34 21.868 96.18 22.72C96.88 23.43 97.44 24.566 97.44 25.56C97.44 26.838 97.02 27.974 96.18 28.684Z" fill="#F8C64F"/>
<path d="M84.84 0H35.7C15.96 0 0 16.188 0 36.21V86.194C0 106.216 15.96 122.404 35.7 122.404H84.98C104.72 122.404 120.68 106.216 120.68 86.194V36.21C120.54 16.188 104.58 0 84.84 0ZM113.54 86.194C113.54 102.24 100.66 115.304 84.84 115.304H35.7C19.88 115.304 7 102.24 7 86.194V36.21C7 20.164 19.88 7.1 35.7 7.1H84.98C100.8 7.1 113.68 20.164 113.68 36.21V86.194H113.54Z" fill="#F8C64F"/>
</svg>
