<svg width="232" height="232" viewBox="0 0 232 232" fill="none" xmlns="http://www.w3.org/2000/svg">
<path d="M224 108H211.664C209.742 85.3941 199.889 64.1957 183.847 48.1533C167.804 32.1109 146.606 22.2577 124 20.3362V8C124 5.8783 123.157 3.8434 121.657 2.3431C120.157 0.8429 118.122 0 116 0C113.878 0 111.843 0.8429 110.343 2.3431C108.843 3.8434 108 5.8783 108 8V20.3362C85.3941 22.2577 64.1957 32.1109 48.1532 48.1533C32.1107 64.1957 22.2576 85.3941 20.3359 108H8C5.8783 108 3.8434 108.843 2.3431 110.343C0.8429 111.843 0 113.878 0 116C0 118.122 0.8429 120.157 2.3431 121.657C3.8434 123.157 5.8783 124 8 124H20.3359C22.2576 146.606 32.1107 167.804 48.1532 183.847C64.1957 199.889 85.3941 209.742 108 211.664V224C108 226.122 108.843 228.157 110.343 229.657C111.843 231.157 113.878 232 116 232C118.122 232 120.157 231.157 121.657 229.657C123.157 228.157 124 226.122 124 224V211.664C146.606 209.742 167.804 199.889 183.847 183.847C199.889 167.804 209.742 146.606 211.664 124H224C226.122 124 228.157 123.157 229.657 121.657C231.157 120.157 232 118.122 232 116C232 113.878 231.157 111.843 229.657 110.343C228.157 108.843 226.122 108 224 108ZM184 124H195.599C193.728 142.352 185.583 159.496 172.54 172.54C159.496 185.583 142.352 193.728 124 195.599V184C124 181.878 123.157 179.843 121.657 178.343C120.157 176.843 118.122 176 116 176C113.878 176 111.843 176.843 110.343 178.343C108.843 179.843 108 181.878 108 184V195.599C89.648 193.728 72.5042 185.583 59.4605 172.54C46.4167 159.496 38.272 142.352 36.4009 124H48C50.1217 124 52.1566 123.157 53.6569 121.657C55.1571 120.157 56 118.122 56 116C56 113.878 55.1571 111.843 53.6569 110.343C52.1566 108.843 50.1217 108 48 108H36.4009C38.272 89.648 46.4167 72.5042 59.4605 59.4605C72.5042 46.4167 89.648 38.272 108 36.4009V48C108 50.1217 108.843 52.1566 110.343 53.6569C111.843 55.1571 113.878 56 116 56C118.122 56 120.157 55.1571 121.657 53.6569C123.157 52.1566 124 50.1217 124 48V36.4009C142.352 38.272 159.496 46.4167 172.54 59.4605C185.583 72.5042 193.728 89.648 195.599 108H184C181.878 108 179.843 108.843 178.343 110.343C176.843 111.843 176 113.878 176 116C176 118.122 176.843 120.157 178.343 121.657C179.843 123.157 181.878 124 184 124ZM156 116C156 123.911 153.654 131.645 149.259 138.223C144.864 144.801 138.616 149.928 131.307 152.955C123.998 155.983 115.956 156.775 108.196 155.231C100.437 153.688 93.31 149.878 87.7157 144.284C82.1216 138.69 78.312 131.563 76.7686 123.804C75.2252 116.044 76.0173 108.002 79.0448 100.693C82.0723 93.384 87.1992 87.1365 93.777 82.7412C100.355 78.346 108.089 76 116 76C126.605 76.012 136.772 80.2302 144.271 87.729C151.77 95.228 155.988 105.395 156 116Z" fill="#EAB308"/>
</svg>
