<svg width="256" height="256" viewBox="0 0 256 256" fill="none" xmlns="http://www.w3.org/2000/svg">
<path d="M236 120H223.664C221.742 97.3941 211.889 76.1957 195.847 60.1533C179.804 44.1109 158.606 34.2577 136 32.3362V20C136 17.8783 135.157 15.8434 133.657 14.3431C132.157 12.8429 130.122 12 128 12C125.878 12 123.843 12.8429 122.343 14.3431C120.843 15.8434 120 17.8783 120 20V32.3362C97.3941 34.2577 76.1957 44.1109 60.1532 60.1533C44.1107 76.1957 34.2576 97.3941 32.3359 120H20C17.8783 120 15.8434 120.843 14.3431 122.343C12.8429 123.843 12 125.878 12 128C12 130.122 12.8429 132.157 14.3431 133.657C15.8434 135.157 17.8783 136 20 136H32.3359C34.2576 158.606 44.1107 179.804 60.1532 195.847C76.1957 211.889 97.3941 221.742 120 223.664V236C120 238.122 120.843 240.157 122.343 241.657C123.843 243.157 125.878 244 128 244C130.122 244 132.157 243.157 133.657 241.657C135.157 240.157 136 238.122 136 236V223.664C158.606 221.742 179.804 211.889 195.847 195.847C211.889 179.804 221.742 158.606 223.664 136H236C238.122 136 240.157 135.157 241.657 133.657C243.157 132.157 244 130.122 244 128C244 125.878 243.157 123.843 241.657 122.343C240.157 120.843 238.122 120 236 120ZM196 136H207.599C205.728 154.352 197.583 171.496 184.54 184.54C171.496 197.583 154.352 205.728 136 207.599V196C136 193.878 135.157 191.843 133.657 190.343C132.157 188.843 130.122 188 128 188C125.878 188 123.843 188.843 122.343 190.343C120.843 191.843 120 193.878 120 196V207.599C101.648 205.728 84.5042 197.583 71.4605 184.54C58.4167 171.496 50.272 154.352 48.4009 136H60C62.1217 136 64.1566 135.157 65.6569 133.657C67.1571 132.157 68 130.122 68 128C68 125.878 67.1571 123.843 65.6569 122.343C64.1566 120.843 62.1217 120 60 120H48.4009C50.272 101.648 58.4167 84.5042 71.4605 71.4605C84.5042 58.4167 101.648 50.272 120 48.4009V60C120 62.1217 120.843 64.1566 122.343 65.6569C123.843 67.1571 125.878 68 128 68C130.122 68 132.157 67.1571 133.657 65.6569C135.157 64.1566 136 62.1217 136 60V48.4009C154.352 50.272 171.496 58.4167 184.54 71.4605C197.583 84.5042 205.728 101.648 207.599 120H196C193.878 120 191.843 120.843 190.343 122.343C188.843 123.843 188 125.878 188 128C188 130.122 188.843 132.157 190.343 133.657C191.843 135.157 193.878 136 196 136ZM168 128C168 135.911 165.654 143.645 161.259 150.223C156.864 156.801 150.616 161.928 143.307 164.955C135.998 167.983 127.956 168.775 120.196 167.231C112.437 165.688 105.31 161.878 99.7157 156.284C94.1216 150.69 90.312 143.563 88.7686 135.804C87.2252 128.044 88.0173 120.002 91.0448 112.693C94.0723 105.384 99.1992 99.1365 105.777 94.7412C112.355 90.346 120.089 88 128 88C138.605 88.012 148.772 92.2302 156.271 99.729C163.77 107.228 167.988 117.395 168 128V128Z" fill="#F8C64F"/>
</svg>
