<svg width="248" height="225" viewBox="0 0 248 225" fill="none" xmlns="http://www.w3.org/2000/svg">
<path d="M124 0.416664C140.196 0.416664 156.234 3.31579 171.198 8.9485C186.161 14.5812 199.757 22.8372 211.21 33.2451C222.662 43.653 231.747 56.009 237.945 69.6076C244.143 83.2061 247.333 97.781 247.333 112.5C247.333 142.226 234.339 170.735 211.21 191.755C188.08 212.775 156.71 224.583 124 224.583C67.2667 224.583 19.7833 190.062 5.10667 143.099L52.3433 160.808C55.55 175.267 69.7333 186.251 86.63 186.251C105.87 186.251 121.533 172.016 121.533 154.531V153.074L163.467 125.838H164.453C190.107 125.838 210.95 106.896 210.95 83.5825C210.95 60.2692 190.107 41.3271 164.453 41.3271C138.8 41.3271 117.833 60.2692 117.833 83.5825V84.1429L88.6033 122.924L86.63 122.812C79.3533 122.812 72.57 124.829 67.02 128.304L0.666672 103.533C5.97001 45.8104 59.0033 0.416664 124 0.416664ZM78.12 170.447C87.9867 174.146 99.3333 169.999 103.403 161.032C107.473 152.065 102.787 141.866 93.1667 138.167L77.38 132.227C83.4233 130.209 90.2067 130.097 96.62 132.563C103.157 134.917 108.213 139.512 110.803 145.453C113.517 151.281 113.517 157.782 110.803 163.61C105.5 175.715 89.8367 181.543 76.5167 176.5C70.35 174.146 65.6633 169.887 63.0733 164.843L78.12 170.447ZM195.533 83.5825C195.533 99.1621 181.597 111.827 164.453 111.827C147.433 111.827 133.497 99.1621 133.497 83.5825C133.48 79.8839 134.27 76.2189 135.82 72.799C137.37 69.3791 139.649 66.2718 142.527 63.6565C145.405 61.0411 148.824 58.9694 152.587 57.5609C156.351 56.1523 160.383 55.4348 164.453 55.4496C181.597 55.4496 195.533 68.115 195.533 83.5825ZM141.267 83.5825C141.267 95.2392 151.627 104.766 164.577 104.766C177.403 104.766 187.763 95.2392 187.763 83.5825C187.763 71.9258 177.403 62.3988 164.577 62.3988C151.627 62.3988 141.267 71.9258 141.267 83.5825Z" fill="#F8C64F"/>
</svg>
