<svg width="704" height="134" viewBox="0 0 704 134" fill="none" xmlns="http://www.w3.org/2000/svg">
<path d="M0 134V0H704V134H0ZM122.356 27.4852L98.897 88.184L75.4384 27.4852H53.6404L88.8364 107.649H108.958L144.154 27.4852H122.356ZM244.711 27.4852H216.222L181.026 107.649H204.485L211.692 88.184H247.565L254.772 107.649H278.23L244.711 27.4852ZM408.97 93.9124H358.683V27.4852H336.885V107.649H348.622H358.683H408.97V93.9124ZM507.867 27.4852L484.408 88.184L460.95 27.4852H439.152L474.348 107.649H494.469L529.665 27.4852H507.867ZM628.546 72.1555H596.703V59.5531H625.192V49.242H596.703V37.7853H628.546V27.4742H596.703H579.935V82.4446H596.703H628.546V72.1555ZM229.636 40.0876L242.873 75.5926H216.383L229.636 40.0876Z" fill="#F8C64F"/>
</svg>
